HIERARCHY
ROOT Hips
{
	OFFSET 0.00000 0.00000 0.00000
	CHANNELS 6 Xposition Yposition Zposition Zrotation Yrotation Xrotation 
	JOINT LHipJoint
	{
		OFFSET 0 0 0
		CHANNELS 3 Zrotation Yrotation Xrotation
		JOINT LeftHip
		{
			OFFSET 1.37590 -1.78394 0.89329
			CHANNELS 3 Zrotation Yrotation Xrotation
			JOINT LeftKnee
			{
				OFFSET 2.47928 -6.81178 0.00000
				CHANNELS 3 Zrotation Yrotation Xrotation
				JOINT LeftAnkle
				{
					OFFSET 2.63345 -7.23535 0.00000
					CHANNELS 3 Zrotation Yrotation Xrotation
					JOINT LeftToe
					{
						OFFSET 0.23938 -0.65768 2.27012
						CHANNELS 3 Zrotation Yrotation Xrotation
						End Site
						{
							OFFSET 0.00000 -0.00000 1.18363
						}
					}
				}
			}
		}
	}
	JOINT RHipJoint
	{
		OFFSET 0 0 0
		CHANNELS 3 Zrotation Yrotation Xrotation
		JOINT RightHip
		{
			OFFSET -1.33617 -1.78394 0.89329
			CHANNELS 3 Zrotation Yrotation Xrotation
			JOINT RightKnee
			{
				OFFSET -2.56922 -7.05888 0.00000
				CHANNELS 3 Zrotation Yrotation Xrotation
				JOINT RightAnkle
				{
					OFFSET -2.56568 -7.04915 0.00000
					CHANNELS 3 Zrotation Yrotation Xrotation
					JOINT RightToe
					{
						OFFSET -0.27533 -0.75646 2.18105
						CHANNELS 3 Zrotation Yrotation Xrotation
						End Site
						{
							OFFSET -0.00000 -0.00000 1.15233
						}
					}
				}
			}
		}
	}
	JOINT lowerback
	{
		OFFSET 0 0 0
		CHANNELS 3 Zrotation Yrotation Xrotation
		JOINT Chest
		{
			OFFSET 0.06190 2.15152 -0.00935
			CHANNELS 3 Zrotation Yrotation Xrotation
			JOINT Chest2
			{
				OFFSET 0.06334 2.15332 0.00872
				CHANNELS 3 Zrotation Yrotation Xrotation
				JOINT lowerneck
				{
					OFFSET 0 0 0
					CHANNELS 3 Zrotation Yrotation Xrotation
					JOINT Neck
					{
						OFFSET -0.04202 1.66908 0.23524
						CHANNELS 3 Zrotation Yrotation Xrotation
						JOINT Head
						{
							OFFSET 0.07510 1.69357 -0.24440
							CHANNELS 3 Zrotation Yrotation Xrotation
							End Site
							{
								OFFSET 0.02556 1.71719 -0.11000
							}
						}
					}
				}
				JOINT LeftCollar
				{
					OFFSET 0 0 0
					CHANNELS 3 Zrotation Yrotation Xrotation
					JOINT LeftShoulder
					{
						OFFSET 3.67168 1.26306 -0.41342
CHANNELS 3 Zrotation Xrotation Yrotation
						JOINT LeftElbow
						{
OFFSET 0 -4.685100 -0.000000
CHANNELS 3 Zrotation Xrotation Yrotation
							JOINT LeftWrist
							{
OFFSET 0 -3.396260 -0.000000
CHANNELS 3 Zrotation Xrotation Yrotation
								JOINT lhand
								{
									OFFSET 0 0 0
CHANNELS 3 Zrotation Xrotation Yrotation
									JOINT LFingers
									{
OFFSET 0 -0.486080 -0.000000
CHANNELS 3 Zrotation Xrotation Yrotation
										End Site
										{
OFFSET 0 -0.391890 -0.000000
										}
									}
								}
								JOINT LThumb
								{
OFFSET 0 0.000000 0.000000
CHANNELS 3 Zrotation Xrotation Yrotation
									End Site
									{
OFFSET 0 -0.397870 0.397870
									}
								}
							}
						}
					}
				}
				JOINT RightCollar
				{
					OFFSET 0 0 0
					CHANNELS 3 Zrotation Yrotation Xrotation
					JOINT RightShoulder
					{
						OFFSET -3.04136 1.42992 -0.76390
CHANNELS 3 Zrotation Xrotation Yrotation
						JOINT RightElbow
						{
OFFSET 0 -5.555760 -0.000000
CHANNELS 3 Zrotation Xrotation Yrotation
							JOINT RightWrist
							{
OFFSET 0 -3.327740 -0.000000
CHANNELS 3 Zrotation Xrotation Yrotation
								JOINT rhand
								{
									OFFSET 0 0 0
CHANNELS 3 Zrotation Xrotation Yrotation
									JOINT RFingers
									{
OFFSET 0 -0.507630 -0.000000
CHANNELS 3 Zrotation Xrotation Yrotation
										End Site
										{
OFFSET 0 -0.409260 -0.000000
										}
									}
								}
								JOINT RThumb
								{
OFFSET 0 0.000000 0.000000
CHANNELS 3 Zrotation Xrotation Yrotation
									End Site
									{
OFFSET 0 -0.415510 0.415510
									}
								}
							}
						}
					}
				}
			}
		}
	}
}
MOTION
Frames: 10
Frame Time: 0.008333333333333333
42.032400 17.811700 6.566200 -114.616000 -83.294100 124.221000 0.000000 0.000000 0.000000 -11.043600 -7.002300 -5.931800 0.266200 3.319100 9.168300 0.183000 3.780800 -10.378300 0.032100 1.156700 3.180100 0.000000 0.000000 0.000000 28.069100 5.875600 -9.983900 -0.664800 -5.214400 14.521200 -0.077800 -7.697900 -12.501000 -0.776400 -5.625900 15.702800 2.479000 -0.092700 -4.246300 3.046500 -0.357400 -0.419300 1.719600 -0.192400 1.956200 -5.915000 -3.537900 -25.176300 12.078500 -4.726300 6.671200 4.333600 -1.476800 6.523900 0.000000 0.000000 0.000000 -4.340100 -8.161900 -7.022400 12.464300 -20.497200 2.262200 17.153400 38.919300 -17.752400 0.000000 0.000000 0.000000 -7.125000 0.000000 0.000000 -10.511200 48.219200 0.843400 0.000000 0.000000 0.000000 -5.571400 -10.887500 18.212300 -15.102400 -24.288500 -3.267900 -16.256000 20.726700 28.058200 0.000000 0.000000 0.000000 7.125000 0.000000 -0.000000 16.022700 58.294800 -5.298800
42.028837 17.810926 6.559530 -113.665346 -83.404184 123.237623 0.000000 0.000000 0.000000 -11.078466 -7.013399 -5.896195 0.266130 3.318577 9.167035 0.185926 3.650482 -10.329668 0.034677 1.202199 3.305350 0.000000 0.000000 0.000000 28.042190 5.836474 -9.958879 -0.666547 -5.221208 14.540635 -0.077456 -7.780816 -12.598135 -0.767942 -5.595976 15.616538 2.614375 -0.109547 -4.162730 2.952901 -0.374927 -0.527012 1.546200 -0.200639 1.797139 -5.951130 -3.543371 -24.970974 12.131121 -4.746080 6.830729 4.355655 -1.482503 6.549333 0.000000 0.000000 0.000000 -3.930937 -8.182598 -6.812844 12.525113 -20.587473 2.283597 17.378453 38.637583 -17.980727 0.000000 0.000000 0.000000 -7.125000 0.000000 0.000000 -10.368943 48.483696 0.899850 0.000000 0.000000 0.000000 -5.233474 -10.626267 17.840595 -14.831784 -23.911057 -3.157559 -18.574124 21.132774 24.348994 0.000000 0.000000 0.000000 7.125000 0.000000 0.000000 11.604273 55.123461 -2.914286
42.026065 17.809902 6.552971 -112.604601 -83.505824 122.149436 0.000000 0.000000 0.000000 -11.090028 -7.014238 -5.889344 0.267117 3.324857 9.184607 0.192098 3.478060 -10.312520 0.033360 1.178509 3.240055 0.000000 0.000000 0.000000 28.025288 5.793465 -9.936860 -0.667802 -5.226058 14.554482 -0.073790 -7.885315 -12.664267 -0.768854 -5.599248 15.625907 2.073690 -0.290877 -5.024123 3.406480 -0.626307 -1.407407 2.301086 -0.341251 1.387931 -6.730110 -3.004199 -18.531186 12.139366 -3.845527 4.585071 4.563075 -1.298438 4.764029 0.000000 0.000000 0.000000 -4.404224 -5.827434 -6.216673 12.814009 -21.013598 2.386504 17.463240 38.217535 -18.019766 0.000000 0.000000 0.000000 -7.125000 0.000000 0.000000 -10.300716 48.535654 0.907269 0.000000 0.000000 0.000000 -5.729634 -8.137521 18.272147 -14.740744 -23.783673 -3.120629 -19.122522 21.293811 23.843170 0.000000 0.000000 0.000000 7.125000 0.000000 0.000000 10.815206 54.721965 -2.606472
42.022688 17.808844 6.546594 -111.664052 -83.620921 121.189771 0.000000 0.000000 0.000000 -11.131671 -7.064414 -5.876081 0.269093 3.337166 9.218885 0.197310 3.342644 -10.308625 0.010662 0.653709 1.796381 0.000000 0.000000 0.000000 27.978407 5.749062 -9.922033 -0.668889 -5.230337 14.566658 -0.072509 -7.952631 -12.725392 -0.756071 -5.553472 15.494191 2.443721 -0.295993 -4.890274 3.128556 -0.617710 -2.223799 1.810728 -0.348007 0.465552 -6.745302 -2.760866 -15.252372 12.320039 -3.564962 3.845123 4.647221 -1.267941 3.993415 0.000000 0.000000 0.000000 -3.728542 -4.115090 -6.304688 13.032632 -21.334979 2.465149 17.588066 37.573070 -18.146745 0.000000 0.000000 0.000000 -7.125000 0.000000 0.000000 -10.221676 48.683130 0.937599 0.000000 0.000000 0.000000 -5.069849 -6.251373 18.001208 -14.584502 -23.564095 -3.057919 -16.049146 21.634977 29.286159 0.000000 0.000000 0.000000 7.125000 0.000000 0.000000 17.050110 59.430018 -6.118336
42.019569 17.807304 6.540817 -110.480424 -83.690993 119.992511 0.000000 0.000000 0.000000 -11.103435 -7.093290 -5.880123 0.271158 3.349650 9.253811 0.203143 3.171204 -10.292706 0.036321 1.229892 3.381553 0.000000 0.000000 0.000000 27.987610 5.713332 -9.928477 -0.672441 -5.243768 14.605073 -0.073768 -8.028733 -12.844103 -0.764488 -5.583548 15.580656 2.138631 -0.376167 -5.306930 3.383595 -0.743955 -1.952543 2.233709 -0.406998 0.985668 -6.803825 -2.726964 -15.367480 12.037010 -3.464607 3.751516 4.575166 -1.231086 3.966370 0.000000 0.000000 0.000000 -3.881231 -4.730341 -5.768416 13.020734 -21.317553 2.460849 17.599364 37.599409 -18.097598 0.000000 0.000000 0.000000 -7.125000 0.000000 0.000000 -10.196203 48.634781 0.923207 0.000000 0.000000 0.000000 -5.242124 -6.610897 17.773720 -14.271857 -23.121533 -2.934295 -15.757072 21.672991 29.287283 0.000000 0.000000 0.000000 7.125000 0.000000 0.000000 17.367780 59.363680 -6.211657
42.015992 17.805807 6.535571 -109.135669 -83.766009 118.614077 0.000000 0.000000 0.000000 -11.093165 -7.129105 -5.858419 0.272442 3.357354 9.275297 0.208702 3.024930 -10.291884 0.033668 1.184419 3.256279 0.000000 0.000000 0.000000 27.996148 5.636633 -9.918462 -0.675547 -5.255736 14.639410 -0.072422 -8.113376 -12.927866 -0.768528 -5.597785 15.621854 2.259753 -0.393131 -5.328980 3.321043 -0.773074 -1.880825 2.098737 -0.420469 1.070022 -6.666853 -2.746772 -15.633579 11.943751 -3.513191 3.930373 4.519060 -1.245405 4.063341 0.000000 0.000000 0.000000 -3.545549 -5.033896 -5.560104 13.036646 -21.340859 2.466615 17.503056 37.458098 -18.266940 0.000000 0.000000 0.000000 -7.125000 0.000000 0.000000 -10.339955 48.792755 0.976756 0.000000 0.000000 0.000000 -4.886287 -6.690740 17.031477 -13.887712 -22.573774 -2.785000 -16.000126 22.384951 28.585445 0.000000 0.000000 0.000000 7.125000 0.000000 0.000000 16.630838 58.746366 -5.688320
42.011620 17.803597 6.530329 -108.247536 -83.851242 117.695760 0.000000 0.000000 0.000000 -11.120350 -7.129611 -5.811432 0.271134 3.349249 9.252639 0.210599 2.879126 -10.223771 0.041207 1.309776 3.601502 0.000000 0.000000 0.000000 27.965534 5.544219 -9.925985 -0.680459 -5.274217 14.692376 -0.075291 -8.139667 -13.011692 -0.754404 -5.547561 15.477046 2.332151 -0.430302 -5.408061 3.270978 -0.829253 -1.839415 2.002066 -0.447683 1.156120 -6.566199 -2.716694 -15.631446 11.852198 -3.491354 4.037976 4.475538 -1.234758 4.089494 0.000000 0.000000 0.000000 -3.241699 -5.158892 -5.423927 13.103878 -21.439287 2.491124 17.345738 37.148567 -18.661897 0.000000 0.000000 0.000000 -7.125000 0.000000 0.000000 -10.615861 49.170088 1.103051 0.000000 0.000000 0.000000 -4.555804 -6.684675 16.562100 -13.513772 -22.035174 -2.643002 -15.953494 22.571167 27.885947 0.000000 0.000000 0.000000 7.125000 0.000000 0.000000 16.232378 58.061911 -5.279019
42.009033 17.802335 6.525223 -106.800093 -83.950572 116.220033 0.000000 0.000000 0.000000 -11.144993 -7.136608 -5.827684 0.274418 3.369582 9.309363 0.214650 2.697918 -10.175598 0.038707 1.269031 3.489308 0.000000 0.000000 0.000000 27.941662 5.473952 -9.934385 -0.685274 -5.292499 14.744815 -0.075421 -8.216583 -13.111809 -0.757643 -5.559064 15.510194 2.413292 -0.485445 -5.461905 3.220546 -0.909069 -1.774647 1.898558 -0.486132 1.252140 -6.497358 -2.702390 -15.753650 11.806399 -3.487071 4.171785 4.450479 -1.226934 4.147097 0.000000 0.000000 0.000000 -2.966009 -5.385180 -5.132653 13.092944 -21.423213 2.487139 17.251821 37.097025 -18.314403 0.000000 0.000000 0.000000 -7.125000 0.000000 0.000000 -10.593790 48.803645 1.004475 0.000000 0.000000 0.000000 -4.269679 -6.772084 16.045917 -13.106878 -21.443279 -2.492467 -15.846882 23.196236 27.809138 0.000000 0.000000 0.000000 7.125000 0.000000 0.000000 16.296527 57.964492 -5.262406
42.007143 17.801050 6.518856 -105.503943 -84.030928 114.889369 0.000000 0.000000 0.000000 -11.158360 -7.127106 -5.835468 0.276570 3.382564 9.345744 0.217129 2.552377 -10.123729 0.032823 1.168801 3.213398 0.000000 0.000000 0.000000 27.936391 5.422026 -9.938816 -0.691616 -5.316388 14.813177 -0.073247 -8.322423 -13.208183 -0.755461 -5.551340 15.487917 2.454570 -0.528929 -5.515050 3.197613 -0.971158 -1.767807 1.847084 -0.516756 1.288764 -6.503822 -2.682482 -15.572749 11.801729 -3.467225 4.212235 4.452257 -1.221168 4.128412 0.000000 0.000000 0.000000 -2.741551 -5.417662 -4.949054 13.109927 -21.448043 2.493341 17.191408 37.096538 -18.308963 0.000000 0.000000 0.000000 -7.125000 0.000000 0.000000 -10.649162 48.789196 1.005753 0.000000 0.000000 0.000000 -4.045287 -6.609768 15.765910 -12.823297 -21.027644 -2.389516 -17.504649 23.767951 25.379648 0.000000 0.000000 0.000000 7.125000 0.000000 0.000000 13.237439 55.926778 -3.631311
42.005677 17.799818 6.513909 -104.547184 -84.103564 113.912958 0.000000 0.000000 0.000000 -11.182686 -7.141429 -5.844389 0.278623 3.395249 9.381241 0.219187 2.439121 -10.089408 0.035325 1.213561 3.336593 0.000000 0.000000 0.000000 27.909627 5.336405 -9.988494 -0.699915 -5.347678 14.902799 -0.077598 -8.335442 -13.299377 -0.744328 -5.511126 15.372316 2.546966 -0.559568 -5.643065 3.132083 -1.023174 -1.663169 1.722214 -0.540276 1.465746 -6.448737 -2.673687 -15.622083 11.785458 -3.466585 4.255353 4.438062 -1.218393 4.148169 0.000000 0.000000 0.000000 -2.491205 -5.648377 -4.730538 13.098983 -21.432157 2.489393 17.237871 37.241079 -18.743429 0.000000 0.000000 0.000000 -7.125000 0.000000 0.000000 -10.744953 49.236443 1.134319 0.000000 0.000000 0.000000 -3.714032 -6.648389 15.379382 -12.507734 -20.561614 -2.277583 -19.141058 24.482478 23.743815 0.000000 0.000000 0.000000 7.125000 0.000000 0.000000 10.753760 54.625089 -2.566585
